<svg width="167" height="57" viewBox="0 0 167 57" fill="none" xmlns="http://www.w3.org/2000/svg">
<rect width="167" height="57" rx="3" fill="#0D0D0D"/>
<path fill-rule="evenodd" clip-rule="evenodd" d="M104.568 40.3662C102.528 40.3662 101.035 39.3574 100.863 37.8209L98.4896 37.8208C98.6395 40.6233 100.96 42.3962 104.396 42.3962C108.068 42.3962 110.377 40.5806 110.377 37.6819C110.377 35.4155 109.056 34.1385 105.877 33.3867L104.17 32.9675C102.173 32.4741 101.357 31.8295 101.357 30.7341C101.357 29.3596 102.635 28.4153 104.503 28.4153C106.371 28.4153 107.649 29.3486 107.789 30.8949H110.13C110.054 28.2215 107.81 26.3853 104.536 26.3853C101.228 26.3853 98.8979 28.2215 98.8979 30.8949C98.8979 33.0541 100.219 34.3847 103.064 35.0719L105.072 35.5556C107.08 36.0491 107.928 36.7692 107.928 37.9719C107.928 39.3573 106.522 40.3662 104.568 40.3662ZM64.1697 37.9499H58.2636L56.8453 42.1378H54.3438L59.9378 26.6434H62.5369L68.131 42.1378H65.5868L64.1697 37.9499ZM58.8754 36.0187H63.5577L61.2495 29.2208H61.1849L58.8754 36.0187ZM75.4983 42.2562C78.3337 42.2562 80.2126 40.0008 80.2126 36.4903C80.2126 32.9896 78.3227 30.7232 75.4556 30.7232C73.9803 30.6756 72.5983 31.4429 71.8586 32.7203H71.816V30.8414H69.5715V45.8751H71.8903V40.2798H71.9439C72.6521 41.5652 74.0326 42.3329 75.4983 42.2562ZM77.8289 36.4907C77.8289 34.2034 76.6469 32.6996 74.8434 32.6996C73.0715 32.6996 71.8797 34.235 71.8797 36.4907C71.8797 38.767 73.0715 40.2915 74.8434 40.2915C76.6469 40.2915 77.8289 38.7987 77.8289 36.4907ZM87.9308 42.2562C90.7663 42.2562 92.6452 40.0008 92.6452 36.4903C92.6452 32.9895 90.7553 30.7232 87.8881 30.7232C86.4128 30.6756 85.0308 31.4429 84.2911 32.7203H84.2485V30.8413H82.004V45.8751H84.3228V40.2798H84.3765C85.0847 41.5652 86.4652 42.3328 87.9308 42.2562ZM90.2627 36.4907C90.2627 34.2034 89.0806 32.6996 87.2771 32.6996C85.5053 32.6996 84.3135 34.235 84.3135 36.4907C84.3135 38.767 85.5053 40.2915 87.2771 40.2915C89.0806 40.2915 90.2627 38.7987 90.2627 36.4907ZM115.382 28.168V30.8416H117.53V32.678H115.382V38.9062C115.382 39.8738 115.812 40.3247 116.756 40.3247C117.011 40.3202 117.266 40.3023 117.519 40.271V42.0965C117.095 42.1758 116.663 42.2117 116.231 42.2037C113.944 42.2037 113.052 41.3446 113.052 39.1535V32.678H111.409V30.8416H113.052V28.168H115.382ZM124.132 30.7025C120.867 30.7025 118.774 32.9362 118.774 36.4908C118.774 40.0552 120.846 42.2791 124.132 42.2791C127.418 42.2791 129.491 40.0552 129.491 36.4908C129.491 32.9361 127.407 30.7025 124.132 30.7025ZM127.128 36.4906C127.128 34.0522 126.01 32.613 124.131 32.613C122.252 32.613 121.136 34.0632 121.136 36.4906C121.136 38.9388 122.252 40.367 124.131 40.367C126.01 40.367 127.128 38.9388 127.128 36.4906ZM133.614 30.8413H131.402L131.402 42.1389H133.721V35.4379C133.644 34.7599 133.867 34.0821 134.331 33.5824C134.796 33.0827 135.456 32.811 136.137 32.8386C136.49 32.8283 136.842 32.8756 137.179 32.9787V30.8096C136.919 30.7512 136.652 30.7222 136.385 30.7231C135.11 30.6744 133.976 31.5264 133.667 32.7643H133.614V30.8413ZM147.871 38.8208C147.559 40.8717 145.561 42.2791 143.006 42.2791C139.719 42.2791 137.679 40.0771 137.679 36.5444C137.679 33.0008 139.73 30.7025 142.908 30.7025C146.034 30.7025 148 32.8497 148 36.2751V37.0697H140.02V37.2098C139.946 38.0509 140.236 38.8834 140.818 39.4957C141.399 40.1079 142.216 40.4409 143.06 40.4098C144.185 40.5153 145.246 39.869 145.669 38.8208L147.871 38.8208ZM145.68 35.449H140.031C140.029 34.6862 140.332 33.9542 140.873 33.4157C141.413 32.8772 142.146 32.5768 142.909 32.5814C143.666 32.5651 144.395 32.8653 144.921 33.4097C145.447 33.954 145.722 34.6931 145.68 35.449Z" fill="white"/>
<path fill-rule="evenodd" clip-rule="evenodd" d="M85.1204 14.6143H86.2293V22.4267H85.1204V14.6143ZM61.2114 16.0015C60.5327 15.2849 59.5684 14.9103 58.584 14.981H55.8945V22.4266H58.584C60.8018 22.4266 62.0874 21.0593 62.0874 18.6806C62.2116 17.7014 61.89 16.7182 61.2114 16.0015ZM58.455 21.3744H57.051V16.0334H58.455C59.1548 15.9946 59.8355 16.2705 60.3107 16.7858C60.7859 17.3011 61.0059 18.0018 60.9106 18.6963C61.0134 19.3936 60.7965 20.1001 60.3201 20.6197C59.8437 21.1392 59.1586 21.4164 58.455 21.3744ZM63.3931 19.6149C63.2967 18.6076 63.7797 17.6328 64.6394 17.0993C65.4992 16.5658 66.5871 16.5658 67.4468 17.0993C68.3066 17.6328 68.7895 18.6076 68.6932 19.6149C68.7914 20.6232 68.3088 21.5999 67.4483 22.1345C66.5878 22.6692 65.4984 22.6692 64.6379 22.1345C63.7774 21.5999 63.2949 20.6232 63.3931 19.6149ZM66.044 17.6842C67.0041 17.6842 67.5512 18.3964 67.5512 19.6142H67.5512C67.5512 20.8368 67.0041 21.5483 66.044 21.5484C65.0803 21.5484 64.5381 20.8417 64.5381 19.6142C64.5381 18.3964 65.0803 17.6842 66.044 17.6842ZM75.7371 22.4265H74.5867L73.4254 18.2882H73.3377L72.1812 22.4265H71.0419L69.493 16.8076H70.6178L71.6243 21.0952H71.7072L72.8624 16.8076H73.9263L75.0815 21.0952H75.1692L76.1709 16.8076H77.2798L75.7371 22.4265ZM79.6498 16.8076H78.5823L78.5823 22.427H79.6913V19.1395C79.6515 18.7656 79.777 18.3929 80.0349 18.1191C80.2928 17.8454 80.6574 17.698 81.0331 17.7155C81.8533 17.7155 82.2457 18.1646 82.2457 19.0676V22.4269H83.3547V18.7891C83.436 18.2397 83.263 17.6831 82.8846 17.2765C82.5062 16.8699 81.9635 16.6574 81.4096 16.6991C80.6943 16.6409 80.0209 17.043 79.7327 17.7003H79.6498V16.8076ZM89.0167 17.0992C88.1569 17.6327 87.6738 18.6075 87.7701 19.6148C87.672 20.6232 88.1547 21.5998 89.0152 22.1345C89.8758 22.6691 90.9652 22.6691 91.8257 22.1345C92.6863 21.5998 93.1689 20.6232 93.0708 19.6148C93.1671 18.6075 92.6841 17.6327 91.8242 17.0992C90.9644 16.5657 89.8765 16.5657 89.0167 17.0992ZM91.9283 19.6142C91.9283 18.3964 91.3812 17.6842 90.4211 17.6842C89.4574 17.6842 88.9152 18.3964 88.9152 19.6142C88.9152 20.8417 89.4574 21.5484 90.4211 21.5484C91.3812 21.5483 91.9283 20.8368 91.9283 19.6142ZM96.328 19.1603C94.9911 19.2432 94.2379 19.8264 94.2379 20.8379C94.2398 21.3175 94.4445 21.7739 94.8014 22.0944C95.1582 22.4148 95.634 22.5693 96.1111 22.5197C96.7916 22.5511 97.4364 22.2141 97.799 21.6374H97.8867V22.4271H98.9543V18.5876C98.9543 17.4005 98.1597 16.6992 96.7509 16.6992C95.4761 16.6992 94.5682 17.3183 94.4548 18.2835H95.5285C95.6516 17.8862 96.0806 17.6589 96.6997 17.6589C97.4577 17.6589 97.8501 17.9941 97.8501 18.5876V19.0726L96.328 19.1603ZM97.8491 20.3572V19.8874L96.4768 19.9752C95.703 20.027 95.352 20.2902 95.352 20.7856C95.352 21.2914 95.7907 21.5857 96.394 21.5857C96.7511 21.6218 97.1077 21.5115 97.382 21.2799C97.6563 21.0484 97.8248 20.7154 97.8491 20.3572ZM102.743 16.7145C101.323 16.7145 100.411 17.8393 100.411 19.6148C100.411 21.3945 101.314 22.5193 102.743 22.5193C103.468 22.546 104.147 22.1684 104.508 21.5389H104.595V22.4267H105.658V14.6143H104.549V17.7003H104.466C104.131 17.0656 103.46 16.6815 102.743 16.7145ZM101.555 19.6141C101.555 20.8056 102.117 21.5227 103.056 21.5227C103.991 21.5227 104.568 20.7953 104.568 19.6189C104.568 18.4481 103.985 17.7103 103.056 17.7103C102.123 17.7103 101.555 18.4322 101.555 19.6141H101.555ZM111.491 17.0993C110.631 17.6328 110.148 18.6076 110.244 19.6149C110.146 20.6232 110.629 21.5999 111.489 22.1345C112.35 22.6692 113.439 22.6692 114.3 22.1345C115.16 21.5999 115.643 20.6232 115.545 19.6149C115.641 18.6076 115.158 17.6328 114.298 17.0993C113.438 16.5658 112.351 16.5658 111.491 17.0993ZM114.404 19.6142C114.404 18.3964 113.857 17.6842 112.897 17.6842C111.933 17.6842 111.391 18.3964 111.391 19.6142C111.391 20.8417 111.933 21.5484 112.897 21.5484C113.857 21.5483 114.404 20.8368 114.404 19.6142ZM118.099 16.8076H117.032V22.427H118.141V19.1395C118.101 18.7656 118.226 18.3929 118.484 18.1191C118.742 17.8454 119.107 17.698 119.483 17.7155C120.303 17.7155 120.695 18.1646 120.695 19.0676V22.4269H121.804V18.7891C121.885 18.2397 121.713 17.6831 121.334 17.2765C120.956 16.8699 120.413 16.6574 119.859 16.6991C119.144 16.6409 118.47 17.043 118.182 17.7003H118.099V16.8076ZM128.069 15.4086V16.8333H129.287V17.7674H128.069V20.6569C128.069 21.2456 128.312 21.5033 128.864 21.5033C129.005 21.5029 129.146 21.4943 129.287 21.4777V22.4015C129.087 22.4371 128.886 22.4561 128.683 22.4582C127.45 22.4582 126.959 22.0243 126.959 20.9409V17.7674H126.067V16.8332H126.959V15.4086H128.069ZM131.9 14.6143H130.801L130.801 22.4267H131.91V19.145C131.876 18.7594 132.013 18.3784 132.286 18.1037C132.559 17.8291 132.939 17.6888 133.325 17.7204C134.108 17.7204 134.526 18.175 134.526 19.0725V22.4267H135.636V18.7989C135.71 18.2523 135.536 17.7015 135.162 17.2964C134.787 16.8913 134.252 16.6742 133.701 16.7042C132.975 16.6452 132.29 17.0478 131.988 17.7107H131.9V14.6143ZM142.102 20.9097C141.791 21.9697 140.765 22.6546 139.667 22.5355C138.917 22.5553 138.197 22.2447 137.697 21.6861C137.198 21.1276 136.968 20.3775 137.071 19.635C136.971 18.8904 137.199 18.1391 137.697 17.5759C138.194 17.0126 138.911 16.6927 139.662 16.6991C141.225 16.6991 142.169 17.7674 142.169 19.532V19.919H138.201V19.9811C138.166 20.3981 138.308 20.8105 138.593 21.117C138.878 21.4235 139.279 21.5956 139.697 21.591C140.24 21.6561 140.768 21.387 141.034 20.9097L142.102 20.9097ZM141.04 19.0985H138.201C138.196 18.711 138.348 18.3379 138.622 18.0639C138.896 17.7898 139.269 17.6379 139.656 17.6428C140.039 17.634 140.407 17.7871 140.67 18.0644C140.934 18.3416 141.068 18.7172 141.04 19.0985Z" fill="white"/>
<path fill-rule="evenodd" clip-rule="evenodd" d="M39.0387 12C39.186 13.9223 38.578 15.8263 37.3441 17.3076C36.1469 18.7967 34.3329 19.6543 32.4224 19.6347C32.3009 17.7677 32.9265 15.929 34.1615 14.5235C35.4121 13.099 37.1535 12.198 39.0387 12ZM45.0789 23.2931C42.8816 24.644 41.5294 27.0264 41.4962 29.6055C41.4994 32.5235 43.2468 35.1568 45.9343 36.2935C45.4174 37.9725 44.6384 39.5593 43.6259 40.995C42.2662 43.029 40.8405 45.0162 38.5777 45.0529C37.5016 45.0777 36.7751 44.7683 36.0182 44.4458C35.2286 44.1095 34.4059 43.759 33.1184 43.759C31.7529 43.759 30.8933 44.1207 30.0643 44.4696C29.3478 44.7712 28.6542 45.0631 27.6766 45.1036C25.5217 45.1834 23.8748 42.9327 22.4656 40.9178C19.6491 36.803 17.456 29.3216 20.3962 24.231C21.7769 21.7499 24.3585 20.1755 27.1964 20.0838C28.4186 20.0587 29.5913 20.5297 30.6195 20.9427C31.4059 21.2586 32.1077 21.5405 32.6823 21.5405C33.1875 21.5405 33.8697 21.2697 34.6647 20.9542C35.9171 20.4571 37.4496 19.8489 39.0112 20.0128C41.4377 20.0888 43.6864 21.3044 45.0789 23.2931Z" fill="white"/>
</svg>
