<svg width="200" height="140" viewBox="0 0 200 140" fill="none" xmlns="http://www.w3.org/2000/svg">
<rect x="0.25" y="0.25" width="199.5" height="139.5" rx="5.75" fill="white" fill-opacity="0.9"/>
<rect x="0.25" y="0.25" width="199.5" height="139.5" rx="5.75" fill="white" fill-opacity="0.9"/>
<g clip-path="url(#clip0_3602_3149)">
<path d="M43.4585 56.415H33.9756V58.781H43.4585V56.415Z" fill="#0D0D0D"/>
<path fill-rule="evenodd" clip-rule="evenodd" d="M34.3971 75.6084V77.9782H34.4131V82.0082H34.3952V84.3733H36.7819L36.7763 75.6103L34.3971 75.6084Z" fill="#0D0D0D"/>
<path d="M62.8021 81.9961H53.7612V84.363H62.8021V81.9961Z" fill="#0D0D0D"/>
<path fill-rule="evenodd" clip-rule="evenodd" d="M62.3521 65.1663V56.4033H59.9889L59.9945 65.1663H62.3521Z" fill="#0D0D0D"/>
<path fill-rule="evenodd" clip-rule="evenodd" d="M48.1492 50.0132L28 50.0226L28.0236 90.7781L48.6251 90.7649L68.7743 90.7554L68.7498 50L48.1492 50.0132ZM66.3857 52.3688V52.3849H66.3979V69.2051H62.3528V69.1975H55.9671L55.9568 52.3735L66.3857 52.3688ZM30.3726 58.7837H30.383V56.4177H30.3717V52.3914L43.4615 52.3849H47.1363V62.8034H45.2518L30.3764 62.8128L30.3726 58.7837ZM30.3905 88.4045V88.3951H30.383V75.6124V71.5824H32.3617H40.8109L40.8213 88.4073L30.3905 88.4045ZM47.207 75.603L47.2145 88.3979H43.1845L43.1732 69.2032L30.3783 69.2107V65.1807L47.1504 65.1722L47.2013 70.2962V71.5711H49.5862L49.573 70.2293L49.5626 52.3773H53.5926L53.6039 71.572L66.396 71.5664V75.5974H66.1746V75.6058H62.1455V75.5992H53.7594L47.207 75.603ZM66.4055 85.3384V88.3847L49.7501 88.3941L49.7096 84.3651H49.7275V82H49.686L49.6474 77.9737L66.3998 77.9634V81.2914L66.4055 85.3384Z" fill="#0D0D0D"/>
<path d="M85.18 56.1295C84.9049 56.3515 84.685 56.6344 84.5378 56.9559C84.3907 57.2773 84.3202 57.6286 84.332 57.982C84.3272 58.352 84.4205 58.7166 84.6026 59.0388C84.7847 59.3609 85.049 59.629 85.3685 59.8156C86.8912 60.5641 88.5074 61.1048 90.174 61.4231C92.3175 61.8635 94.3222 62.8173 96.016 64.2028C96.7356 64.898 97.2946 65.7422 97.6538 66.6761C98.013 67.61 98.1638 68.6111 98.0956 69.6094C98.1264 70.7114 97.9015 71.8056 97.4385 72.8061C96.9755 73.8066 96.2871 74.6863 95.4271 75.376C93.4269 76.9248 90.9398 77.7093 88.4129 77.5885C84.1818 77.5709 80.1248 75.9021 77.1059 72.9375L80.6223 68.6267C83.4705 71.1224 86.1047 72.3702 88.5251 72.3702C89.4296 72.422 90.3261 72.1761 91.0776 71.6701C91.3749 71.4547 91.6147 71.1696 91.7762 70.8399C91.9377 70.5102 92.0158 70.146 92.0039 69.779C92.0131 69.4066 91.9278 69.0379 91.7559 68.7074C91.5841 68.3768 91.3312 68.0952 91.0211 67.8889C89.8083 67.2085 88.4931 66.7296 87.1267 66.4708C84.6955 66.0234 82.3917 65.0488 80.3774 63.6157C78.9533 62.4442 78.2413 60.604 78.2413 58.0951C78.1844 56.9805 78.401 55.8689 78.8721 54.8572C79.3433 53.8455 80.0548 52.9644 80.9446 52.2907C82.9052 50.8795 85.2799 50.1612 87.694 50.2489C89.4967 50.2551 91.2857 50.5618 92.9876 51.1563C94.674 51.7164 96.2402 52.5883 97.6046 53.7267L94.6177 58.0376C92.6051 56.3994 90.1028 55.4807 87.5084 55.4275C86.6739 55.3809 85.8497 55.6294 85.18 56.1295Z" fill="#0D0D0D"/>
<path d="M169.88 72.6132V77.675H149.597V73.6497L159.95 63.8719C162.327 61.6105 162.749 60.2292 162.749 58.926C162.749 56.8172 161.293 55.5904 158.455 55.5904C157.379 55.5475 156.309 55.7698 155.34 56.2378C154.37 56.7057 153.531 57.405 152.895 58.274L148.372 55.3605C150.445 52.3312 154.2 50.376 159.032 50.376C165.014 50.376 169.001 53.443 169.001 58.3126C169.001 60.9198 168.273 63.2971 164.515 66.7863L158.34 72.6132H169.88Z" fill="#0D0D0D"/>
<path d="M114.041 50.2808H120.36V72.437H134.051V77.5855H114.041V50.2808Z" fill="#0D0D0D"/>
<path d="M77.5205 86.6857C77.5692 85.8852 77.8521 85.1166 78.334 84.4756C78.8159 83.8345 79.4757 83.3492 80.2311 83.0801C80.9866 82.8109 81.8046 82.7697 82.5833 82.9616C83.362 83.1536 84.0671 83.5701 84.611 84.1595L83.5067 85.179C83.2799 84.9037 82.9945 84.6825 82.6711 84.5319C82.3478 84.3812 81.9949 84.3049 81.6382 84.3084C81.0075 84.3084 80.4027 84.5589 79.9568 85.0048C79.5109 85.4508 79.2604 86.0556 79.2604 86.6862C79.2604 87.3168 79.5109 87.9216 79.9568 88.3675C80.4027 88.8135 81.0075 89.064 81.6382 89.064C81.9959 89.0678 82.3499 88.9905 82.6735 88.8379C82.9971 88.6853 83.282 88.4614 83.5067 88.183L84.611 89.2015C84.0691 89.7936 83.3648 90.2128 82.586 90.4069C81.8072 90.6011 80.9885 90.5615 80.2321 90.2931C79.4757 90.0247 78.8152 89.5394 78.3329 88.8979C77.8507 88.2563 77.5681 87.4869 77.5205 86.6857Z" fill="#0D0D0D"/>
<path d="M98.0703 88.8084H94.6207L93.9611 90.4009H92.1991L95.5111 82.9702H97.2072L100.53 90.4009H98.7252L98.0703 88.8084ZM97.5285 87.5034L96.3507 84.6587L95.1729 87.5034H97.5285Z" fill="#0D0D0D"/>
<path d="M115.307 85.666C115.307 87.3216 114.065 88.3514 112.08 88.3514H110.583V90.4009H108.863V82.9702H112.08C114.065 82.9702 115.307 84.0001 115.307 85.666ZM113.566 85.666C113.566 84.8481 113.036 84.3714 111.984 84.3714H110.583V86.9512H111.984C113.035 86.9512 113.566 86.4735 113.566 85.666Z" fill="#0D0D0D"/>
<path d="M124.086 82.9702H125.805V90.4009H124.085L124.086 82.9702Z" fill="#0D0D0D"/>
<path d="M136.662 84.3714H134.284V82.9702H140.759V84.3714H138.382V90.4018H136.662V84.3714Z" fill="#0D0D0D"/>
<path d="M153.761 88.8084H150.311L149.652 90.4009H147.89L151.202 82.9702H152.898L156.22 90.4009H154.416L153.761 88.8084ZM153.219 87.5034L152.041 84.6587L150.859 87.5034H153.219Z" fill="#0D0D0D"/>
<path d="M164.556 82.9702H166.276V89.0007H170.001V90.4009H164.556V82.9702Z" fill="#0D0D0D"/>
</g>
<rect x="0.25" y="0.25" width="199.5" height="139.5" rx="5.75" stroke="#B2B2B2" stroke-width="0.5"/>
<defs>
<clipPath id="clip0_3602_3149">
<rect width="142" height="40.7781" fill="white" transform="translate(28 50)"/>
</clipPath>
</defs>
</svg>
