<svg width="200" height="140" viewBox="0 0 200 140" fill="none" xmlns="http://www.w3.org/2000/svg">
<rect x="0.25" y="0.25" width="199.5" height="139.5" rx="5.75" fill="white" fill-opacity="0.9"/>
<rect x="0.25" y="0.25" width="199.5" height="139.5" rx="5.75" fill="white" fill-opacity="0.9"/>
<path d="M83.132 79.1755H78.072V65.02H83.163C84.591 65.02 85.8327 65.2994 86.8571 65.8582C87.8815 66.4169 88.6886 67.224 89.2474 68.2795C89.8061 69.3349 90.0855 70.5766 90.0855 72.0667C90.0855 73.5567 89.8061 74.7984 89.2474 75.8539C88.6886 76.9093 87.8815 77.7165 86.826 78.3063C85.8016 78.8961 84.5599 79.1755 83.132 79.1755ZM81.0832 76.5989H83.0078C84.3426 76.5989 85.367 76.2575 86.05 75.5124C86.7329 74.7984 87.0744 73.6499 87.0744 72.0667C87.0744 70.5146 86.7329 69.366 86.05 68.652C85.367 67.938 84.3426 67.5966 83.0078 67.5966H81.0832V76.5989Z" fill="#0D0D0D"/>
<path d="M92.3514 79.1757H89.1229L94.0587 65.0513H97.9701L102.875 79.1757H99.6464L98.5909 75.9472H93.4378L92.3514 79.1757ZM94.1829 73.619H97.8149L96.0765 68.2797H95.9523L94.1829 73.619Z" fill="#0D0D0D"/>
<path d="M115.23 72.098C115.23 73.6501 114.919 74.9539 114.329 76.0404C113.739 77.1269 112.932 77.934 111.939 78.5238C110.915 79.0826 109.797 79.393 108.524 79.393C107.252 79.393 106.103 79.1136 105.11 78.5238C104.085 77.934 103.309 77.1269 102.719 76.0404C102.13 74.9539 101.819 73.6501 101.819 72.129C101.819 70.5769 102.13 69.2731 102.719 68.1866C103.309 67.1001 104.085 66.293 105.11 65.7032C106.134 65.1444 107.252 64.834 108.524 64.834C109.797 64.834 110.915 65.1134 111.939 65.7032C112.963 66.2619 113.739 67.1001 114.329 68.1866C114.95 69.242 115.23 70.5769 115.23 72.098ZM112.187 72.098C112.187 70.6079 111.846 69.4593 111.194 68.6833C110.542 67.9072 109.642 67.5037 108.555 67.5037C107.469 67.5037 106.569 67.9072 105.917 68.6833C105.265 69.4904 104.923 70.6079 104.923 72.098C104.923 73.588 105.265 74.7366 105.917 75.5127C106.569 76.2887 107.469 76.6923 108.555 76.6923C109.642 76.6923 110.542 76.2887 111.194 75.5127C111.846 74.7366 112.187 73.588 112.187 72.098Z" fill="#0D0D0D"/>
<path d="M119.296 65.02H123.022L126.964 74.5191H127.119L131.062 65.02H134.756V79.1755H131.807V69.9558H131.682L127.988 79.0823H126.002L122.308 69.9248H122.183V79.1755H119.234V65.02H119.296Z" fill="#0D0D0D"/>
<path d="M139.163 79.3619C138.139 79.3619 137.3 79.1135 136.618 78.5547C135.935 78.027 135.593 77.2199 135.593 76.1955C135.593 75.4194 135.779 74.7675 136.152 74.333C136.524 73.8984 137.021 73.5569 137.642 73.3396C138.232 73.1223 138.915 72.9981 139.629 72.936C140.56 72.8429 141.243 72.7498 141.615 72.6256C142.019 72.5014 142.205 72.3152 142.205 71.9427V71.9116C142.205 71.477 142.081 71.1356 141.802 70.9183C141.522 70.6699 141.15 70.5768 140.622 70.5768C140.094 70.5768 139.66 70.701 139.349 70.9183C139.039 71.1356 138.822 71.446 138.728 71.7875L135.966 71.5702C136.183 70.6078 136.68 69.8318 137.487 69.273C138.294 68.7142 139.349 68.4038 140.622 68.4038C141.398 68.4038 142.174 68.528 142.857 68.7763C143.54 69.0247 144.099 69.3972 144.533 69.9249C144.968 70.4526 145.185 71.1356 145.185 71.9737V79.1446H142.36V77.6856H142.298C142.05 78.1822 141.646 78.5858 141.119 78.8962C140.622 79.2066 139.939 79.3619 139.163 79.3619ZM140.001 77.3441C140.653 77.3441 141.181 77.1578 141.615 76.7853C142.019 76.4128 142.236 75.9472 142.236 75.3884V74.2709C142.112 74.333 141.926 74.4261 141.677 74.4882C141.429 74.5503 141.181 74.6123 140.901 74.6434C140.622 74.6744 140.374 74.7055 140.156 74.7675C139.629 74.8296 139.225 74.9848 138.884 75.2021C138.573 75.4194 138.418 75.7299 138.418 76.1645C138.418 76.568 138.573 76.8784 138.884 77.0647C139.163 77.2199 139.567 77.3441 140.001 77.3441Z" fill="#0D0D0D"/>
<path d="M146.335 79.1755V65.02H149.315V72.5634H149.47L152.885 68.5278H156.3L152.326 73.1221L156.517 79.1444H153.04L150.091 74.8916L149.284 75.7918V79.1755H146.335Z" fill="#0D0D0D"/>
<path d="M160.801 79.3931C159.714 79.3931 158.752 79.1758 157.945 78.7102C157.169 78.2756 156.517 77.6237 156.113 76.8166C155.678 76.0095 155.461 75.0161 155.461 73.8986C155.461 72.8121 155.678 71.8497 156.113 71.0426C156.548 70.2355 157.137 69.5836 157.914 69.118C158.69 68.6524 159.621 68.4351 160.676 68.4351C161.608 68.4351 162.477 68.6524 163.222 69.0249C163.967 69.4284 164.588 70.0182 165.022 70.8253C165.488 71.6324 165.705 72.6258 165.705 73.8365V74.6436H158.41C158.41 75.4197 158.628 76.0715 159.062 76.5061C159.497 76.9407 160.087 77.1891 160.832 77.1891C161.328 77.1891 161.763 77.0649 162.104 76.8787C162.477 76.6614 162.725 76.3509 162.88 75.9784L165.643 76.1647C165.426 77.158 164.898 77.9341 164.06 78.5239C163.253 79.0827 162.166 79.3931 160.801 79.3931ZM158.441 72.8121H162.942C162.942 72.1912 162.725 71.6635 162.322 71.2599C161.918 70.8564 161.39 70.6391 160.738 70.6391C160.087 70.6391 159.528 70.8564 159.124 71.2599C158.69 71.6945 158.472 72.1912 158.441 72.8121Z" fill="#0D0D0D"/>
<path d="M166.481 79.1756V68.559H169.368V70.3905H169.492C169.679 69.7386 170.02 69.242 170.486 68.9005C170.951 68.559 171.479 68.4038 172.069 68.4038C172.41 68.4038 172.721 68.4349 173 68.528V71.1356C172.876 71.1045 172.659 71.0735 172.41 71.0114C172.162 70.9803 171.945 70.9803 171.727 70.9803C171.075 70.9803 170.517 71.1976 170.113 71.6012C169.679 72.0048 169.461 72.5325 169.461 73.1844V79.1756H166.481Z" fill="#0D0D0D"/>
<path d="M28 85.9739L42.2796 59.5566L54.8519 54L40.5723 80.4173L28 85.9739Z" fill="#0D0D0D"/>
<path d="M42.2485 79.9205L53.0824 59.8359L59.2289 65.8893L48.5502 86.0049L42.2485 79.9205Z" fill="#0D0D0D"/>
<path d="M60.4394 66.5103L68.4484 69.4283L64.4439 76.7543L54.7275 77.0958L60.4394 66.5103Z" fill="#0D0D0D"/>
<rect x="0.25" y="0.25" width="199.5" height="139.5" rx="5.75" stroke="#B2B2B2" stroke-width="0.5"/>
</svg>
