<svg width="51" height="51" viewBox="0 0 51 51" fill="none" xmlns="http://www.w3.org/2000/svg">
<rect x="0.646484" width="50.0691" height="50.0691" rx="1.9433" fill="#0D0D0D"/>
<path d="M34.7168 17.0313C33.0062 16.2683 31.2004 15.7269 29.3454 15.4211C29.0915 15.8633 28.8619 16.3182 28.6573 16.7839C26.6814 16.4938 24.672 16.4938 22.6961 16.7839C22.4915 16.3182 22.2618 15.8633 22.0081 15.4211C20.1519 15.7295 18.3449 16.2721 16.6326 17.0353C13.2332 21.9357 12.3117 26.7144 12.7724 31.4253C14.7632 32.8584 16.9914 33.9484 19.3602 34.6477C19.8936 33.9487 20.3656 33.2072 20.7712 32.4309C20.0009 32.1506 19.2574 31.8048 18.5493 31.3974C18.7357 31.2657 18.9179 31.13 19.094 30.9983C21.1543 31.9424 23.403 32.4319 25.6798 32.4319C27.9565 32.4319 30.2053 31.9424 32.2656 30.9983C32.4437 31.14 32.626 31.2757 32.8103 31.3974C32.1008 31.8054 31.356 32.1519 30.5843 32.4329C30.9894 33.2088 31.4614 33.9497 31.9952 34.6477C34.3661 33.9512 36.596 32.8618 38.5872 31.4273C39.1278 25.9642 37.6636 21.2294 34.7168 17.0313ZM21.3548 28.5282C20.0708 28.5282 19.0101 27.3928 19.0101 25.9961C19.0101 24.5994 20.034 23.4542 21.3507 23.4542C22.6675 23.4542 23.72 24.5994 23.6975 25.9961C23.675 27.3928 22.6634 28.5282 21.3548 28.5282ZM30.0048 28.5282C28.7187 28.5282 27.6621 27.3928 27.6621 25.9961C27.6621 24.5994 28.686 23.4542 30.0048 23.4542C31.3236 23.4542 32.368 24.5994 32.3454 25.9961C32.3229 27.3928 31.3133 28.5282 30.0048 28.5282Z" fill="#00E599"/>
</svg>
