<svg width="167" height="57" viewBox="0 0 167 57" fill="none" xmlns="http://www.w3.org/2000/svg">
<rect width="167" height="57" rx="3" fill="#0D0D0D"/>
<path fill-rule="evenodd" clip-rule="evenodd" d="M61.0576 31.0454V33.0497H65.8679C65.7925 33.9937 65.4001 34.8845 64.7544 35.5774C63.7813 36.5686 62.4345 37.1025 61.0465 37.0472C58.0946 37.0472 55.7017 34.6542 55.7017 31.7024C55.7017 28.7505 58.0946 26.3576 61.0465 26.3576C62.4025 26.3354 63.7119 26.852 64.6876 27.794L66.1018 26.3798C64.7711 25.0323 62.9514 24.2812 61.0576 24.2976C58.3618 24.1927 55.8246 25.5711 54.4455 27.8898C53.0664 30.2085 53.0664 33.096 54.4455 35.4147C55.8246 37.7335 58.3618 39.1119 61.0576 39.007C62.9859 39.0941 64.8577 38.343 66.1909 36.947C67.3575 35.6652 67.9803 33.9803 67.9279 32.248C67.9315 31.826 67.8942 31.4046 67.8166 30.9897L61.0576 31.0454ZM73.4059 29.5867C70.7937 29.5929 68.6806 31.7144 68.6846 34.3265C68.6887 36.9387 70.8086 39.0535 73.4207 39.0515C76.0329 39.0494 78.1494 36.9313 78.1494 34.3191C78.1678 33.0546 77.672 31.8368 76.7756 30.9447C75.8793 30.0525 74.6592 29.5625 73.3948 29.5867H73.4059ZM79.0629 34.3339C79.0547 31.7232 81.1623 29.599 83.773 29.5867C85.0374 29.5625 86.2575 30.0525 87.1538 30.9447C88.0502 31.8368 88.546 33.0546 88.5276 34.3191C88.5276 36.9298 86.4133 39.0474 83.8026 39.0514C81.1919 39.0555 79.071 36.9446 79.0629 34.3339ZM80.9801 35.5645C81.4885 36.6288 82.596 37.2742 83.7727 37.1919C84.5113 37.1748 85.2116 36.8601 85.7148 36.3191C86.218 35.7782 86.4813 35.057 86.4451 34.3191C86.4422 33.1395 85.7186 32.0815 84.6203 31.6512C83.522 31.2209 82.2723 31.5057 81.4688 32.3694C80.6654 33.2331 80.4716 34.5001 80.9801 35.5645ZM70.6056 35.573C71.1176 36.6367 72.2283 37.2789 73.4056 37.1919H73.3945C74.1331 37.1748 74.8334 36.8601 75.3366 36.3192C75.8398 35.7782 76.1031 35.057 76.0669 34.3191C76.0637 33.1386 75.3386 32.0802 74.2389 31.6508C73.1392 31.2215 71.8888 31.5085 71.0866 32.3746C70.2843 33.2406 70.0935 34.5093 70.6056 35.573ZM107.457 29.5867C109.303 29.6547 110.916 30.8552 111.51 32.6043L111.744 33.1054L105.408 35.7221C105.805 36.6265 106.715 37.1961 107.702 37.1585C108.655 37.1609 109.539 36.6618 110.029 35.8446L111.644 36.9581C110.765 38.2736 109.284 39.06 107.702 39.0515C106.445 39.0699 105.233 38.5761 104.347 37.6836C103.461 36.7911 102.976 35.5766 103.003 34.3191C102.926 33.0904 103.361 31.8846 104.205 30.9881C105.049 30.0916 106.226 29.5843 107.457 29.5867ZM105.052 34.1855C105.006 33.4897 105.243 32.8049 105.708 32.2854C106.173 31.7659 106.827 31.4554 107.524 31.424C108.258 31.3756 108.95 31.7699 109.283 32.4261L105.052 34.1855ZM101.99 38.7731H99.9073V24.8543H101.99V38.7731ZM96.4998 30.6445H96.4219C95.7871 29.9349 94.8797 29.5298 93.9276 29.531C91.4001 29.6536 89.4139 31.7385 89.4139 34.269C89.4139 36.7994 91.4001 38.8844 93.9276 39.0069C94.8828 39.023 95.7961 38.6153 96.4219 37.8934H96.4887V38.5727C96.4887 40.3877 95.5199 41.3564 93.961 41.3564C92.8991 41.3316 91.9575 40.6672 91.5781 39.675L89.7631 40.4322C90.462 42.1323 92.1229 43.2381 93.961 43.2271C96.3996 43.2271 98.415 41.7907 98.415 38.2943V29.8651H96.4998V30.6445ZM94.1138 37.1917L94.1172 37.192H94.1061L94.1138 37.1917ZM95.9901 36.2987C95.5122 36.8394 94.8346 37.1619 94.1138 37.1917C92.6266 37.0588 91.4865 35.8126 91.4865 34.3191C91.4865 32.8245 92.6284 31.5775 94.1172 31.4463C94.8367 31.4832 95.5108 31.809 95.9866 32.3499C96.4625 32.8907 96.6999 33.6008 96.6449 34.3191C96.7063 35.0407 96.4697 35.756 95.9901 36.2987ZM121.264 24.8543H116.287V38.7731H118.369V33.4951H121.275C122.893 33.6113 124.44 32.8142 125.284 31.4295C126.128 30.0449 126.128 28.3046 125.284 26.9199C124.44 25.5352 122.893 24.7381 121.275 24.8543H121.264ZM118.358 31.5353H121.265L121.309 31.5687C122.628 31.5687 123.698 30.4994 123.698 29.1802C123.698 27.8611 122.628 26.7918 121.309 26.7918H118.358V31.5353ZM134.103 29.531C132.554 29.4384 131.098 30.2738 130.396 31.6578L132.244 32.4261C132.616 31.7398 133.359 31.3381 134.137 31.4017C134.671 31.3393 135.207 31.4941 135.626 31.8312C136.045 32.1683 136.311 32.6595 136.364 33.1944V33.3392C135.695 32.9851 134.949 32.8015 134.193 32.8047C132.199 32.8047 130.184 33.9182 130.184 35.9336C130.224 36.8019 130.613 37.6171 131.263 38.1938C131.913 38.7706 132.769 39.0598 133.636 38.9958C134.704 39.0725 135.729 38.5601 136.308 37.6596H136.375V38.7731H138.379V33.4171C138.379 30.9786 136.531 29.5644 134.159 29.5644L134.103 29.531ZM132.222 35.9782C132.222 36.8133 133.168 37.1585 133.847 37.1585L133.903 37.1919C135.158 37.1613 136.198 36.2114 136.342 34.9649C135.764 34.6424 135.11 34.4809 134.449 34.4972C133.402 34.4972 132.222 34.8647 132.222 35.9782ZM145.684 29.8651L143.301 35.9002H143.234L140.762 29.8651H138.535L142.243 38.3054L140.128 42.9933H142.299L148 29.8651H145.684ZM129.047 38.7731H126.965V24.8543H129.047V38.7731Z" fill="white"/>
<path fill-rule="evenodd" clip-rule="evenodd" d="M84.9636 14.0199C83.65 15.4104 83.65 17.5845 84.9636 18.975C86.3188 20.3226 88.5079 20.3226 89.863 18.975C91.1823 17.5868 91.1823 15.4082 89.863 14.0199C89.215 13.3671 88.3332 13 87.4133 13C86.4935 13 85.6117 13.3671 84.9636 14.0199ZM59.8654 18.9973C60.437 18.4006 60.7388 17.5957 60.7006 16.7703C60.7006 16.6023 60.6857 16.4346 60.656 16.2692H57.4157V17.071H59.832C59.8155 17.5759 59.6179 18.0581 59.2753 18.4294C58.5121 19.1672 57.38 19.3733 56.4057 18.952C55.4314 18.5306 54.8064 17.5645 54.8213 16.5031C54.797 15.8007 55.06 15.1188 55.5495 14.6145C56.0391 14.1103 56.7129 13.8272 57.4157 13.8307C58.1149 13.7925 58.7913 14.0853 59.2419 14.6213L59.832 14.0311C59.547 13.7032 59.1883 13.4476 58.7853 13.2851C58.3526 13.0998 57.8865 13.0051 57.4157 13.0067C56.4922 12.9861 55.6013 13.3489 54.9549 14.0088C53.96 15.0102 53.6624 16.5104 54.1996 17.8158C54.7368 19.1212 56.0042 19.9773 57.4157 19.9883C58.336 20.0211 59.2268 19.6608 59.8654 18.9973ZM62.7938 13.9866H65.8002V13.1626H61.903V19.8436H65.8002V19.0196H62.7938V16.9039H65.533V16.1022H62.7938V13.9866ZM69.4526 19.8436H68.5952V13.9866H66.7245V13.1626H71.3678V13.9866H69.4526V19.8436ZM74.6419 13.1626V19.8436H75.4993V13.1626H74.6419ZM79.3067 19.8436H78.4493V13.9866H76.5786V13.1626H81.1662V13.9866H79.3067V19.8436ZM85.5984 18.4183C86.6021 19.4177 88.2248 19.4177 89.2285 18.4183C90.2141 17.3317 90.2141 15.6744 89.2285 14.5878C88.2248 13.5884 86.6021 13.5884 85.5984 14.5878C84.6128 15.6744 84.6128 17.3317 85.5984 18.4183ZM92.0567 13.1626V19.8436H92.9253V14.3986L96.3214 19.8436H97.2122V13.1626H96.3548V18.3626L93.1034 13.1626H92.0567Z" fill="white"/>
<path d="M84.9636 18.975L84.8826 19.0515L84.8851 19.054L84.9636 18.975ZM84.9636 14.0199L84.8846 13.9415L84.8827 13.9435L84.9636 14.0199ZM89.863 18.975L89.9416 19.054L89.9437 19.0517L89.863 18.975ZM89.863 14.0199L89.9438 13.9432L89.942 13.9415L89.863 14.0199ZM60.7006 16.7703L60.5891 16.7703L60.5893 16.7755L60.7006 16.7703ZM59.8654 18.9973L59.9457 19.0745L59.9459 19.0743L59.8654 18.9973ZM60.656 16.2692L60.7656 16.2496L60.7492 16.1579H60.656V16.2692ZM57.4157 16.2692V16.1579H57.3044V16.2692H57.4157ZM57.4157 17.071H57.3044V17.1823H57.4157V17.071ZM59.832 17.071L59.9433 17.0746L59.9471 16.9596H59.832V17.071ZM59.2753 18.4294L59.3528 18.5096L59.3571 18.5049L59.2753 18.4294ZM56.4057 18.952L56.3615 19.0542L56.4057 18.952ZM54.8213 16.5031L54.9327 16.5046L54.9326 16.4992L54.8213 16.5031ZM55.5495 14.6145L55.4696 14.5369L55.5495 14.6145ZM57.4157 13.8307L57.4152 13.9422L57.4218 13.9419L57.4157 13.8307ZM59.2419 14.6213L59.1566 14.6929L59.2348 14.7858L59.3206 14.7L59.2419 14.6213ZM59.832 14.0311L59.9108 14.1098L59.9842 14.0364L59.9161 13.958L59.832 14.0311ZM58.7853 13.2851L58.7415 13.3874L58.7437 13.3883L58.7853 13.2851ZM57.4157 13.0067L57.4132 13.118L57.4161 13.118L57.4157 13.0067ZM54.9549 14.0088L55.0339 14.0873L55.0344 14.0867L54.9549 14.0088ZM54.1996 17.8158L54.0966 17.8582L54.1996 17.8158ZM57.4157 19.9883L57.4197 19.877L57.4166 19.877L57.4157 19.9883ZM65.8002 13.9866V14.0979H65.9116V13.9866H65.8002ZM62.7938 13.9866V13.8752H62.6824V13.9866H62.7938ZM65.8002 13.1626H65.9116V13.0512H65.8002V13.1626ZM61.903 13.1626V13.0512H61.7916V13.1626H61.903ZM61.903 19.8436H61.7916V19.9549H61.903V19.8436ZM65.8002 19.8436V19.9549H65.9116V19.8436H65.8002ZM65.8002 19.0196H65.9116V18.9082H65.8002V19.0196ZM62.7938 19.0196H62.6824V19.1309H62.7938V19.0196ZM62.7938 16.9039V16.7926H62.6824V16.9039H62.7938ZM65.533 16.9039V17.0153H65.6443V16.9039H65.533ZM65.533 16.1022H65.6443V15.9909H65.533V16.1022ZM62.7938 16.1022H62.6824V16.2136H62.7938V16.1022ZM68.5952 19.8436H68.4839V19.9549H68.5952V19.8436ZM69.4526 19.8436V19.9549H69.564V19.8436H69.4526ZM68.5952 13.9866H68.7066V13.8752H68.5952V13.9866ZM66.7245 13.9866H66.6132V14.0979H66.7245V13.9866ZM66.7245 13.1626V13.0512H66.6132V13.1626H66.7245ZM71.3678 13.1626H71.4792V13.0512H71.3678V13.1626ZM71.3678 13.9866V14.0979H71.4792V13.9866H71.3678ZM69.4526 13.9866V13.8752H69.3413V13.9866H69.4526ZM74.6419 19.8436H74.5306V19.9549H74.6419V19.8436ZM74.6419 13.1626V13.0512H74.5306V13.1626H74.6419ZM75.4993 19.8436V19.9549H75.6107V19.8436H75.4993ZM75.4993 13.1626H75.6107V13.0512H75.4993V13.1626ZM78.4493 19.8436H78.3379V19.9549H78.4493V19.8436ZM79.3067 19.8436V19.9549H79.418V19.8436H79.3067ZM78.4493 13.9866H78.5606V13.8752H78.4493V13.9866ZM76.5786 13.9866H76.4672V14.0979H76.5786V13.9866ZM76.5786 13.1626V13.0512H76.4672V13.1626H76.5786ZM81.1662 13.1626H81.2776V13.0512H81.1662V13.1626ZM81.1662 13.9866V14.0979H81.2776V13.9866H81.1662ZM79.3067 13.9866V13.8752H79.1953V13.9866H79.3067ZM89.2285 18.4183L89.3071 18.4973L89.3109 18.4931L89.2285 18.4183ZM85.5984 18.4183L85.5159 18.4932L85.5199 18.4972L85.5984 18.4183ZM89.2285 14.5878L89.311 14.5129L89.307 14.5089L89.2285 14.5878ZM85.5984 14.5878L85.5198 14.5088L85.516 14.513L85.5984 14.5878ZM92.0567 19.8436H91.9454V19.9549H92.0567V19.8436ZM92.0567 13.1626V13.0512H91.9454V13.1626H92.0567ZM92.9253 19.8436V19.9549H93.0366V19.8436H92.9253ZM92.9253 14.3986L93.0197 14.3396L92.8139 14.0096V14.3986H92.9253ZM96.3214 19.8436L96.227 19.9025L96.2597 19.9549H96.3214V19.8436ZM97.2122 19.8436V19.9549H97.3236V19.8436H97.2122ZM97.2122 13.1626H97.3236V13.0512H97.2122V13.1626ZM96.3548 13.1626V13.0512H96.2435V13.1626H96.3548ZM96.3548 18.3626L96.2604 18.4217L96.4662 18.7507V18.3626H96.3548ZM93.1034 13.1626L93.1978 13.1035L93.1651 13.0512H93.1034V13.1626ZM85.0446 18.8986C83.7715 17.551 83.7715 15.444 85.0446 14.0964L84.8827 13.9435C83.5285 15.3769 83.5285 17.6181 84.8827 19.0515L85.0446 18.8986ZM89.7845 18.8961C88.4728 20.2005 86.3538 20.2005 85.0421 18.8961L84.8851 19.054C86.2837 20.4448 88.543 20.4448 89.9415 19.054L89.7845 18.8961ZM89.7823 14.0966C91.0607 15.4419 91.0607 17.553 89.7823 18.8983L89.9437 19.0517C91.3038 17.6205 91.3038 15.3745 89.9437 13.9432L89.7823 14.0966ZM87.4133 13.1114C88.3035 13.1114 89.1569 13.4666 89.784 14.0984L89.942 13.9415C89.2731 13.2676 88.3628 12.8886 87.4133 12.8886V13.1114ZM85.0426 14.0984C85.6698 13.4666 86.5231 13.1114 87.4133 13.1114V12.8886C86.4638 12.8886 85.5536 13.2676 84.8846 13.9415L85.0426 14.0984ZM60.5893 16.7755C60.6262 17.5704 60.3355 18.3456 59.785 18.9203L59.9459 19.0743C60.5385 18.4556 60.8515 17.621 60.8118 16.7652L60.5893 16.7755ZM60.5464 16.2889C60.575 16.4478 60.5893 16.6089 60.5892 16.7703L60.8119 16.7704C60.812 16.5957 60.7965 16.4214 60.7656 16.2496L60.5464 16.2889ZM57.4157 16.3806H60.656V16.1579H57.4157V16.3806ZM57.5271 17.071V16.2692H57.3044V17.071H57.5271ZM59.832 16.9596H57.4157V17.1823H59.832V16.9596ZM59.3571 18.5049C59.7179 18.114 59.926 17.6063 59.9433 17.0746L59.7207 17.0673C59.7051 17.5456 59.518 18.0023 59.1934 18.3539L59.3571 18.5049ZM56.3615 19.0542C57.3771 19.4934 58.5571 19.2785 59.3527 18.5095L59.1979 18.3494C58.467 19.0559 57.3829 19.2533 56.4499 18.8498L56.3615 19.0542ZM54.7099 16.5015C54.6944 17.6079 55.346 18.6149 56.3615 19.0542L56.4499 18.8498C55.5169 18.4462 54.9183 17.521 54.9326 16.5046L54.7099 16.5015ZM55.4696 14.5369C54.959 15.0629 54.6847 15.7743 54.71 16.5069L54.9326 16.4992C54.9094 15.8271 55.161 15.1746 55.6294 14.6921L55.4696 14.5369ZM57.4163 13.7193C56.6832 13.7157 55.9803 14.011 55.4696 14.5369L55.6294 14.6921C56.0979 14.2096 56.7427 13.9387 57.4152 13.942L57.4163 13.7193ZM59.3271 14.5496C58.854 13.9868 58.1438 13.6794 57.4097 13.7195L57.4218 13.9419C58.086 13.9056 58.7286 14.1838 59.1566 14.6929L59.3271 14.5496ZM59.7533 13.9524L59.1631 14.5425L59.3206 14.7L59.9108 14.1098L59.7533 13.9524ZM58.7437 13.3883C59.1303 13.5443 59.4745 13.7896 59.748 14.1042L59.9161 13.958C59.6194 13.6169 59.2462 13.3509 58.827 13.1818L58.7437 13.3883ZM57.4161 13.118C57.8717 13.1165 58.3227 13.2082 58.7415 13.3874L58.8292 13.1827C58.3824 12.9915 57.9013 12.8937 57.4154 12.8953L57.4161 13.118ZM55.0344 14.0867C55.6593 13.4488 56.5205 13.0981 57.4133 13.118L57.4182 12.8954C56.4639 12.8741 55.5433 13.249 54.8753 13.9309L55.0344 14.0867ZM54.3026 17.7734C53.7824 16.5095 54.0706 15.0569 55.0339 14.0873L54.8759 13.9303C53.8494 14.9635 53.5423 16.5114 54.0966 17.8582L54.3026 17.7734ZM57.4166 19.877C56.0499 19.8663 54.8227 19.0373 54.3026 17.7734L54.0966 17.8582C54.6509 19.205 55.9585 20.0883 57.4149 20.0997L57.4166 19.877ZM59.7852 18.9201C59.1685 19.5607 58.3084 19.9087 57.4197 19.8771L57.4118 20.0996C58.3637 20.1335 59.2851 19.7608 59.9457 19.0745L59.7852 18.9201ZM65.8002 13.8752H62.7938V14.0979H65.8002V13.8752ZM65.6889 13.1626V13.9866H65.9116V13.1626H65.6889ZM61.903 13.2739H65.8002V13.0512H61.903V13.2739ZM62.0143 19.8436V13.1626H61.7916V19.8436H62.0143ZM65.8002 19.7322H61.903V19.9549H65.8002V19.7322ZM65.6889 19.0196V19.8436H65.9116V19.0196H65.6889ZM62.7938 19.1309H65.8002V18.9082H62.7938V19.1309ZM62.6824 16.9039V19.0196H62.9051V16.9039H62.6824ZM65.533 16.7926H62.7938V17.0153H65.533V16.7926ZM65.4216 16.1022V16.9039H65.6443V16.1022H65.4216ZM62.7938 16.2136H65.533V15.9909H62.7938V16.2136ZM62.6824 13.9866V16.1022H62.9051V13.9866H62.6824ZM68.5952 19.9549H69.4526V19.7322H68.5952V19.9549ZM68.4839 13.9866V19.8436H68.7066V13.9866H68.4839ZM66.7245 14.0979H68.5952V13.8752H66.7245V14.0979ZM66.6132 13.1626V13.9866H66.8359V13.1626H66.6132ZM71.3678 13.0512H66.7245V13.2739H71.3678V13.0512ZM71.4792 13.9866V13.1626H71.2565V13.9866H71.4792ZM69.4526 14.0979H71.3678V13.8752H69.4526V14.0979ZM69.564 19.8436V13.9866H69.3413V19.8436H69.564ZM74.7533 19.8436V13.1626H74.5306V19.8436H74.7533ZM75.4993 19.7322H74.6419V19.9549H75.4993V19.7322ZM75.388 13.1626V19.8436H75.6107V13.1626H75.388ZM74.6419 13.2739H75.4993V13.0512H74.6419V13.2739ZM78.4493 19.9549H79.3067V19.7322H78.4493V19.9549ZM78.3379 13.9866V19.8436H78.5606V13.9866H78.3379ZM76.5786 14.0979H78.4493V13.8752H76.5786V14.0979ZM76.4672 13.1626V13.9866H76.6899V13.1626H76.4672ZM81.1662 13.0512H76.5786V13.2739H81.1662V13.0512ZM81.2776 13.9866V13.1626H81.0549V13.9866H81.2776ZM79.3067 14.0979H81.1662V13.8752H79.3067V14.0979ZM79.418 19.8436V13.9866H79.1953V19.8436H79.418ZM89.1499 18.3394C88.1897 19.2956 86.6372 19.2956 85.677 18.3394L85.5199 18.4972C86.5669 19.5399 88.26 19.5399 89.307 18.4972L89.1499 18.3394ZM89.146 14.6626C90.0932 15.7068 90.0932 17.2993 89.146 18.3435L89.3109 18.4931C90.3351 17.3641 90.3351 15.6421 89.3109 14.513L89.146 14.6626ZM85.677 14.6667C86.6372 13.7106 88.1897 13.7106 89.1499 14.6667L89.307 14.5089C88.26 13.4662 86.5669 13.4662 85.5199 14.5089L85.677 14.6667ZM85.6809 18.3435C84.7337 17.2993 84.7337 15.7068 85.6809 14.6626L85.516 14.513C84.4918 15.6421 84.4918 17.3641 85.516 18.4931L85.6809 18.3435ZM92.1681 19.8436V13.1626H91.9454V19.8436H92.1681ZM92.9253 19.7322H92.0567V19.9549H92.9253V19.7322ZM92.8139 14.3986V19.8436H93.0366V14.3986H92.8139ZM96.4159 19.7847L93.0197 14.3396L92.8308 14.4575L96.227 19.9025L96.4159 19.7847ZM97.2122 19.7322H96.3214V19.9549H97.2122V19.7322ZM97.1009 13.1626V19.8436H97.3236V13.1626H97.1009ZM96.3548 13.2739H97.2122V13.0512H96.3548V13.2739ZM96.4662 18.3626V13.1626H96.2435V18.3626H96.4662ZM93.009 13.2216L96.2604 18.4217L96.4493 18.3036L93.1978 13.1035L93.009 13.2216ZM92.0567 13.2739H93.1034V13.0512H92.0567V13.2739Z" fill="white"/>
<path d="M19.5238 13.764C19.1609 14.1995 18.9777 14.757 19.0116 15.3229V39.9536C18.9777 40.5195 19.1609 41.077 19.5238 41.5125L19.6018 41.5904L33.3981 27.8053V27.4823L19.6018 13.686L19.5238 13.764Z" fill="url(#paint0_linear_3602_3046)"/>
<path d="M37.9626 32.4037L33.3973 27.8049V27.482L37.9626 22.8721L38.0629 22.9277L43.5302 26.0344C45.0891 26.9141 45.0891 28.3616 43.5302 29.2524L38.0851 32.348L37.9626 32.4037Z" fill="url(#paint1_linear_3602_3046)"/>
<path d="M38.0963 32.3372L33.3973 27.6382L19.5231 41.5124C20.1786 42.0887 21.1515 42.1168 21.8392 41.5792L38.1074 32.3372" fill="url(#paint2_linear_3602_3046)"/>
<path d="M38.0965 22.9391L21.8282 13.697C21.1406 13.1595 20.1677 13.1876 19.5121 13.7638L33.3975 27.6381L38.0965 22.9391Z" fill="url(#paint3_linear_3602_3046)"/>
<path opacity="0.2" d="M37.9627 32.2368L21.828 41.4232C21.1678 41.9169 20.2613 41.9169 19.601 41.4232L19.5231 41.5012L19.601 41.5791C20.26 42.0765 21.169 42.0765 21.828 41.5791L38.0963 32.337L37.9627 32.2368Z" fill="black"/>
<path opacity="0.12" fill-rule="evenodd" clip-rule="evenodd" d="M37.9633 32.237L43.5308 29.0857C44.1062 28.8017 44.5174 28.2671 44.6443 27.6382C44.5869 28.3335 44.1622 28.945 43.5308 29.2416L38.0635 32.3372L37.9633 32.237ZM19.0092 40.0144C19.0276 40.5043 19.2074 40.9768 19.5238 41.3565L19.6018 41.4456L19.5238 41.5236C19.1715 41.1008 18.9886 40.5631 19.0092 40.0144ZM19.0092 40.0144C19.0098 39.9978 19.0106 39.9812 19.0116 39.9646V39.7976C19.0073 39.8701 19.0065 39.9424 19.0092 40.0144Z" fill="black"/>
<path opacity="0.25" d="M21.8283 13.8529L43.5305 26.1905C44.1058 26.4745 44.5171 27.0092 44.644 27.6381C44.5866 26.9428 44.1619 26.3313 43.5305 26.0347L21.8283 13.697C20.2694 12.8174 19 13.5523 19 15.3339V15.5009C19.0334 13.7082 20.2805 12.9733 21.8283 13.8529Z" fill="white"/>
<defs>
<linearGradient id="paint0_linear_3602_3046" x1="27.3554" y1="-3.04877" x2="5.26409" y2="2.82645" gradientUnits="userSpaceOnUse">
<stop stop-color="#00A0FF"/>
<stop offset="0.01" stop-color="#00A1FF"/>
<stop offset="0.26" stop-color="#00BEFF"/>
<stop offset="0.51" stop-color="#00D2FF"/>
<stop offset="0.76" stop-color="#00DFFF"/>
<stop offset="1" stop-color="#00E3FF"/>
</linearGradient>
<linearGradient id="paint1_linear_3602_3046" x1="45.5679" y1="16.2798" x2="18.6322" y2="16.2798" gradientUnits="userSpaceOnUse">
<stop stop-color="#FFE000"/>
<stop offset="0.41" stop-color="#FFBD00"/>
<stop offset="0.78" stop-color="#FFA500"/>
<stop offset="1" stop-color="#FF9C00"/>
</linearGradient>
<linearGradient id="paint2_linear_3602_3046" x1="19.1154" y1="20.4311" x2="1.37013" y2="50.2803" gradientUnits="userSpaceOnUse">
<stop stop-color="#FF3A44"/>
<stop offset="1" stop-color="#C31162"/>
</linearGradient>
<linearGradient id="paint3_linear_3602_3046" x1="8.68892" y1="9.92894" x2="16.6096" y2="23.2581" gradientUnits="userSpaceOnUse">
<stop stop-color="#32A071"/>
<stop offset="0.07" stop-color="#2DA771"/>
<stop offset="0.48" stop-color="#15CF74"/>
<stop offset="0.8" stop-color="#06E775"/>
<stop offset="1" stop-color="#00F076"/>
</linearGradient>
</defs>
</svg>
