<svg width="200" height="140" viewBox="0 0 200 140" fill="none" xmlns="http://www.w3.org/2000/svg">
<rect x="0.25" y="0.25" width="199.5" height="139.5" rx="5.75" fill="white" fill-opacity="0.9"/>
<rect x="0.25" y="0.25" width="199.5" height="139.5" rx="5.75" fill="white" fill-opacity="0.9"/>
<g clip-path="url(#clip0_3602_3125)">
<path d="M97.1502 64V76.2123H94.4516V66.6464H93.6753L89.3658 76.2123H86.4154L91.9175 64H97.1502Z" fill="#0D0D0D"/>
<path d="M80.9144 64L86.4165 76.2123H83.4665L79.1567 66.6464H78.3807V76.2123H75.6821V64H80.9144Z" fill="#0D0D0D"/>
<path d="M128.015 76.2123H130.713V64H128.015V76.2123Z" fill="#0D0D0D"/>
<path fill-rule="evenodd" clip-rule="evenodd" d="M101.73 76.2123L103.523 72.233H109.978L111.771 76.2123H114.721L109.219 64H104.282L98.7799 76.2123H101.73ZM104.715 69.5867L106.04 66.6464H107.461L108.785 69.5867H104.715Z" fill="#0D0D0D"/>
<path d="M118.979 66.6464V76.2123H116.281V64H122.512L128.015 76.2123H125.065L120.755 66.6464H118.979Z" fill="#0D0D0D"/>
<path d="M140.957 66.6464V76.2123H138.259V66.6464H132.212V64H147.005V66.6464H140.957Z" fill="#0D0D0D"/>
<path d="M148.503 64H151.201V73.566H159.747V76.2123H148.503V64Z" fill="#0D0D0D"/>
<path d="M163.945 71.2529V73.566H173.491V76.2123H161.246V64H173.49V66.6464H163.945V68.6065H172.653V71.2529H163.945Z" fill="#0D0D0D"/>
<path d="M44.8116 87.7655L44.814 81.7558C44.1994 81.7558 43.58 81.7075 42.9737 81.612L42.0273 87.5486C42.9451 87.6924 43.882 87.7655 44.8129 87.7655H44.8116ZM47.596 87.551C48.5162 87.4072 49.4304 87.1916 50.315 86.9076L48.4484 81.1901C47.8659 81.3775 47.2619 81.5201 46.6544 81.6144L47.596 87.551ZM39.3071 86.9041L41.1784 81.1878C40.5947 81.0004 40.0229 80.7647 39.4771 80.489L36.7214 85.8424C37.55 86.2619 38.4203 86.6189 39.3071 86.9041ZM52.8996 85.8494C53.7294 85.4311 54.5319 84.9433 55.2856 84.4L51.7178 79.5404C51.2221 79.8986 50.6942 80.2191 50.1485 80.4937L52.8996 85.8494ZM34.3365 84.3906L37.9079 79.5334C37.4145 79.1774 36.9437 78.7768 36.5062 78.3444L32.2156 82.5912L32.2191 82.5947C32.8778 83.2476 33.5899 83.852 34.3365 84.3906ZM57.378 82.6313L57.4149 82.5936C58.0711 81.9431 58.6798 81.2385 59.2243 80.4996L54.325 76.9586C53.966 77.4465 53.5629 77.913 53.1278 78.3455L53.0672 78.4068L55.1286 80.3358L57.378 82.6313ZM30.4014 80.4878L35.3031 76.9504C34.9417 76.459 34.6183 75.9358 34.3401 75.3948L28.9379 78.1228C29.3599 78.9441 29.8521 79.7396 30.4014 80.4867V80.4878ZM60.6902 78.1346C61.1134 77.3133 61.4737 76.4507 61.7625 75.5716L55.9954 73.7157C55.8064 74.2943 55.5686 74.8611 55.2903 75.4019L60.6902 78.1346ZM27.8691 75.5587L33.6375 73.7075C33.4484 73.1301 33.3046 72.5314 33.2083 71.9293L27.2188 72.8649C27.3638 73.777 27.5825 74.6831 27.8691 75.5599V75.5587ZM62.4141 72.8779C62.5591 71.9682 62.6328 71.0396 62.634 70.1181L56.5708 70.1146C56.5708 70.7238 56.522 71.3377 56.4258 71.9399L62.4141 72.8779ZM33.0644 70.1051C33.0644 69.496 33.1132 68.8808 33.2083 68.2799L27.2188 67.3442C27.0737 68.254 27.0012 69.1825 27 70.104H33.0632L33.0644 70.1051ZM56.4281 68.2893L62.4176 67.3572C62.2738 66.4451 62.055 65.539 61.7697 64.6623L56.0001 66.5099C56.1891 67.0886 56.333 67.6859 56.4281 68.2882V68.2893ZM33.6375 66.5029C33.8265 65.9243 34.0643 65.3564 34.3413 64.8154L28.939 62.0864C28.517 62.9077 28.1568 63.7702 27.8691 64.6493L33.6363 66.5029H33.6375ZM55.2975 64.8237L60.7021 62.0993C60.28 61.2768 59.7879 60.4814 59.2398 59.7343L54.3357 63.2695C54.6959 63.7609 55.0193 64.284 55.2975 64.8249V64.8237ZM35.3055 63.26C35.6657 62.7698 36.0699 62.3008 36.5074 61.8684L36.5193 61.8565L32.2322 57.6074L32.2203 57.6191C31.5617 58.272 30.9506 58.9802 30.4049 59.7214L35.3055 63.26ZM53.1492 61.8896L54.4439 60.5804L57.4244 57.6274L57.4149 57.618C56.7598 56.9687 56.0501 56.3665 55.3058 55.828L51.7321 60.6829C52.2242 61.0388 52.6939 61.4371 53.1278 61.8684L53.1492 61.8896ZM37.9222 60.6699C38.4179 60.3129 38.9458 59.9924 39.4915 59.7178L36.744 54.3609C35.9141 54.7793 35.1117 55.2659 34.3579 55.8092L37.9222 60.6699ZM50.164 59.7272L52.9234 54.3763C52.0947 53.9568 51.2256 53.5985 50.3387 53.3134L48.4639 59.0285C49.0476 59.217 49.6195 59.4515 50.1651 59.7284L50.164 59.7272ZM41.1939 59.0214C41.7777 58.8352 42.3816 58.6926 42.988 58.5984L42.0499 52.6605C41.1309 52.8031 40.2155 53.0188 39.331 53.3028L41.1939 59.0214ZM46.6698 58.6019L47.6186 52.6653C46.7008 52.5215 45.764 52.4473 44.8343 52.4473L44.8283 58.457C45.443 58.457 46.0624 58.5065 46.6698 58.6019Z" fill="#0D0D0D"/>
<path d="M44.8152 82.0212V75.9812C44.3031 75.9812 43.7922 75.9149 43.298 75.7857L41.7158 81.6209C42.7257 81.8861 43.7681 82.0212 44.8152 82.0212ZM47.9146 81.6209C48.9282 81.3543 49.9033 80.9576 50.8098 80.4413L47.7416 75.2114C47.3003 75.4624 46.8267 75.6555 46.3337 75.7846L47.9146 81.6209ZM38.8195 80.4401L41.8889 75.2114C41.4489 74.9603 41.0413 74.6511 40.6759 74.2923L40.6193 74.2378L38.6825 76.2465L36.3056 78.5286L36.3405 78.5618C37.0835 79.2937 37.9179 79.9249 38.8208 80.4401H38.8195ZM53.29 78.5641H53.2912C54.033 77.831 54.6738 77.0103 55.1956 76.1221L49.8888 73.0973C49.6339 73.5308 49.3201 73.9323 48.9559 74.2912L53.29 78.5641ZM34.4277 76.109L39.7393 73.0914C39.4844 72.6568 39.2897 72.1901 39.1586 71.7034L33.2326 73.2561C33.5019 74.2544 33.9047 75.2149 34.4277 76.109ZM56.3955 73.2714C56.6648 72.2766 56.8018 71.2498 56.803 70.2183L50.6715 70.2159C50.6715 70.7217 50.6042 71.225 50.4719 71.7117L56.3955 73.2714ZM38.9614 70.2088C38.9614 69.7032 39.0288 69.1998 39.1622 68.713L33.2398 67.1498C32.9693 68.1446 32.8311 69.1714 32.8311 70.2029L38.9626 70.2088H38.9614ZM50.4731 68.7202L56.3979 67.1651C56.1274 66.1668 55.7246 65.2063 55.2016 64.3133L49.8912 67.3333C50.1461 67.7679 50.3421 68.2346 50.4731 68.7202ZM39.7453 67.3263C39.9966 66.8987 40.3067 66.5019 40.6651 66.1466L40.6806 66.1313L38.4877 63.971L36.3789 61.8286L36.3405 61.8654C35.5999 62.5949 34.9603 63.4133 34.4397 64.2991L39.7453 67.3263ZM48.9595 66.1383L51.1307 63.9995L53.3465 61.9198L53.2912 61.8642C52.5506 61.1346 51.7175 60.5034 50.8169 59.9894L47.7451 65.217C48.1792 65.4645 48.5831 65.7701 48.9438 66.123L48.9595 66.1383ZM41.8925 65.2134C42.3326 64.9623 42.8063 64.7705 43.3004 64.6402L41.723 58.8039C40.7083 59.0704 39.7345 59.4659 38.8268 59.9823L41.8925 65.2134ZM46.3374 64.6425L47.9231 58.8075C46.9132 58.541 45.8709 58.406 44.8236 58.4048L44.82 64.4448C45.3335 64.4448 45.8443 64.5111 46.3385 64.6414L46.3374 64.6425Z" fill="#0D0D0D"/>
</g>
<rect x="0.25" y="0.25" width="199.5" height="139.5" rx="5.75" stroke="#B2B2B2" stroke-width="0.5"/>
<defs>
<clipPath id="clip0_3602_3125">
<rect width="147" height="36.2727" fill="white" transform="translate(27 51.5908)"/>
</clipPath>
</defs>
</svg>
