<svg width="51" height="51" viewBox="0 0 51 51" fill="none" xmlns="http://www.w3.org/2000/svg">
<rect x="0.931641" width="50.0691" height="50.0691" rx="1.9433" fill="#0D0D0D"/>
<path d="M27.6334 25.0341C27.6334 29.1267 24.3458 32.4445 20.2903 32.4445C16.2349 32.4445 12.9476 29.1277 12.9476 25.0341C12.9476 20.9406 16.2351 17.624 20.2903 17.624C24.3456 17.624 27.6334 20.9416 27.6334 25.0341ZM35.6888 25.0341C35.6888 28.8868 34.0449 32.0096 32.0172 32.0096C29.9896 32.0096 28.3457 28.8858 28.3457 25.0341C28.3457 21.1825 29.9896 18.0586 32.0172 18.0586C34.0449 18.0586 35.6888 21.1825 35.6888 25.0341ZM38.9835 25.0341C38.9835 28.4859 38.4053 31.2839 37.6922 31.2839C36.9791 31.2839 36.4009 28.4849 36.4009 25.0341C36.4009 21.5834 36.9791 18.7844 37.6924 18.7844C38.4058 18.7844 38.9835 21.5826 38.9835 25.0341Z" fill="#00E599"/>
</svg>
