<svg width="51" height="51" viewBox="0 0 51 51" fill="none" xmlns="http://www.w3.org/2000/svg">
<rect x="0.287109" width="50.0691" height="50.0691" rx="1.9433" fill="#0D0D0D"/>
<path d="M18.653 26.505L21.5114 34.4168C21.5114 34.4168 21.8688 35.157 22.2515 35.157C22.6341 35.157 28.3259 29.2358 28.3259 29.2358L34.6554 17.0105L18.7549 24.4627L18.653 26.505Z" fill="#068C60"/>
<path d="M22.4433 28.5337L21.8946 34.3654C21.8946 34.3654 21.6649 36.1523 23.4514 34.3654C25.2379 32.5785 26.9479 31.2006 26.9479 31.2006" fill="#3CFFBE"/>
<path d="M18.704 26.7873L12.8241 24.8715C12.8241 24.8715 12.1214 24.5864 12.3476 23.9399C12.3942 23.8066 12.4882 23.6932 12.7693 23.4982C14.0721 22.5901 36.8837 14.391 36.8837 14.391C36.8837 14.391 37.5278 14.174 37.9076 14.3183C38.0016 14.3474 38.0862 14.401 38.1527 14.4735C38.2191 14.546 38.2652 14.6348 38.2861 14.7309C38.3271 14.9007 38.3443 15.0754 38.3371 15.2499C38.3353 15.4009 38.317 15.5409 38.3031 15.7603C38.1642 18.002 34.0065 34.7322 34.0065 34.7322C34.0065 34.7322 33.7578 35.7112 32.8665 35.7448C32.6475 35.7518 32.4293 35.7147 32.2249 35.6357C32.0205 35.5566 31.8342 35.4372 31.6769 35.2846C29.928 33.7802 23.883 29.7177 22.5472 28.8242C22.5171 28.8037 22.4917 28.7769 22.4728 28.7458C22.4539 28.7146 22.4419 28.6797 22.4376 28.6435C22.419 28.5494 22.5213 28.4327 22.5213 28.4327C22.5213 28.4327 33.0472 19.0765 33.3273 18.0943C33.349 18.0182 33.2671 17.9807 33.1571 18.014C32.458 18.2712 20.3387 25.9246 19.0011 26.7693C18.9049 26.7984 18.8031 26.8046 18.704 26.7873Z" fill="#00E599"/>
</svg>
