<svg width="51" height="51" viewBox="0 0 51 51" fill="none" xmlns="http://www.w3.org/2000/svg">
<rect width="50.0691" height="50.0691" rx="1.9433" fill="#0D0D0D"/>
<path d="M35.3865 19.855C35.4024 20.0831 35.4024 20.3113 35.4024 20.5416C35.4024 27.5574 30.0291 35.6489 20.2039 35.6489V35.6447C17.3015 35.6489 14.4594 34.8225 12.0161 33.2644C12.4381 33.3148 12.8622 33.3401 13.2874 33.3411C15.6927 33.3432 18.0292 32.541 19.9215 31.0638C17.6358 31.0207 15.6314 29.5393 14.9311 27.3766C15.7318 27.5301 16.5569 27.4986 17.3428 27.2851C14.8508 26.7847 13.0579 24.6083 13.0579 22.0808V22.0135C13.8004 22.4246 14.6318 22.6527 15.4822 22.678C13.1351 21.1188 12.4116 18.0151 13.829 15.5885C16.541 18.9056 20.5424 20.9222 24.8378 21.1356C24.4073 19.2915 24.9954 17.359 26.3832 16.0626C28.5346 14.0524 31.9182 14.1554 33.9406 16.2929C35.1369 16.0584 36.2835 15.6221 37.3327 15.0039C36.934 16.233 36.0994 17.277 34.9846 17.9404C36.0434 17.8164 37.0778 17.5346 38.052 17.1046C37.3349 18.1728 36.4316 19.1033 35.3865 19.855Z" fill="#00E599"/>
</svg>
